<svg xmlns="http://www.w3.org/2000/svg"  xmlns:xlink="http://www.w3.org/1999/xlink"  class="css-rt6ihi" viewBox="0 0 87.5 148.58517197080198"><g transform="translate(-5.312302996924841, -63.90058475028869) scale(10.624605993849682)" fill="#3aa069"><path d="M0.93238 19.99939454 l-0.43238 0 l0 -13.985 l0.43238 0 l0 13.985 z M1.5782 19.99939454 l-0.43238 0 l0 -13.985 l0.43238 0 l0 13.985 z M2.2278 19.99939454 l-0.43238 0 l0 -13.985 l0.43238 0 l0 13.985 z M2.8736 19.99939454 l-0.43238 0 l0 -13.985 l0.43238 0 l0 13.985 z M8.7356 10.5826 c0 0.86476 -0.24104 1.702 -0.70286 2.4306 c0.45998 0.72494 0.70286 1.5621 0.70286 2.4306 c0 2.5116 -2.0442 4.5556 -4.5556 4.5556 l-1.0911 0 l0 -13.985 l0.43238 0 l0 0.012871 l0.65869 0 c2.5116 0 4.5556 2.0442 4.5556 4.5556 z M3.5212 9.048 l0 3.069 l0.65869 0 c0.84636 0 1.5345 -0.68812 1.5345 -1.5345 s-0.68812 -1.5345 -1.5345 -1.5345 l-0.65869 0 z M3.5212 12.5496 l-0.000019531 0.2153 l0.65869 0 c1.2033 0 2.1822 -0.97884 2.1822 -2.1822 s-0.97884 -2.1822 -2.1822 -2.1822 l-0.65869 0 l0 0.21527 l0.65869 0 c1.0856 0 1.9669 0.88316 1.9669 1.9669 c0 1.0856 -0.88316 1.9669 -1.9669 1.9669 l-0.65869 0 z M3.5212 13.9092 l0 3.069 l0.65869 0 c0.84636 0 1.5345 -0.68812 1.5345 -1.5345 c0 -0.21528 -0.04416 -0.42134 -0.12879 -0.61638 c-0.2447 -0.5575 -0.79668 -0.91812 -1.4057 -0.91812 l-0.65869 0 z M4.1798 17.4106 l-0.66057 0 l0 0.21527 l0.65869 0 c1.2033 0 2.1822 -0.97884 2.1822 -2.1822 c0 -0.3128 -0.064394 -0.61454 -0.19135 -0.89606 c-0.35326 -0.78198 -1.1334 -1.2861 -1.989 -1.2861 l-0.65869 0 l0 0.21527 l0.65869 0 c0.78014 0 1.4885 0.46182 1.8013 1.1776 c0.11039 0.2484 0.16559 0.5152 0.16559 0.78934 c0 1.0856 -0.88316 1.9669 -1.9669 1.9669 z M3.5212 18.0583 l-0.000039062 0.21524 l0.65869 0 c1.5603 0 2.8298 -1.2695 2.8298 -2.8298 c0 -0.44342 -0.099356 -0.86844 -0.29806 -1.264 c-0.19504 -0.38822 -0.48208 -0.73046 -0.82796 -0.99356 l-0.22814 -0.17295 l0.22814 -0.17295 c0.71574 -0.54094 1.1261 -1.3634 1.1261 -2.2576 c0 -1.5603 -1.2695 -2.8298 -2.8298 -2.8298 l-0.65869 0 l0 0.21527 l0.65869 0 c1.4425 0 2.6146 1.1739 2.6146 2.6146 c0 1.104 -0.68812 2.0478 -1.6578 2.4306 c0.6219 0.24654 1.1426 0.72676 1.4278 1.3579 c0.15271 0.33856 0.23 0.69918 0.23 1.0727 c0 1.4425 -1.1739 2.6146 -2.6146 2.6146 l-0.65869 0 z M3.521 18.7041 l-0.000019531 0.21888 l0.65869 0 c1.9154 0 3.4756 -1.5603 3.4756 -3.4774 c0 -0.61086 -0.16191 -1.2125 -0.46734 -1.7387 c-0.11039 -0.19135 -0.23918 -0.37166 -0.38454 -0.5391 l-0.14904 -0.13432 l0.13984 -0.16191 c0.55566 -0.63478 0.8611 -1.448 0.8611 -2.2888 c0 -1.9172 -1.5584 -3.4774 -3.4756 -3.4774 l-0.65869 0 l0 0.21344 l0.65869 0 c1.7976 0 3.2604 1.4646 3.2604 3.2622 c0 0.9402 -0.39376 1.8105 -1.0892 2.4306 c0.30726 0.27414 0.56118 0.60534 0.74516 0.97148 c0.22814 0.4563 0.34406 0.94758 0.34406 1.4591 c0 1.7995 -1.4627 3.2622 -3.2604 3.2622 l-0.65869 0 z M8.3048 15.4436 c0 -0.8298 -0.24468 -1.6283 -0.70836 -2.311 l-0.080958 -0.11959 l0.080958 -0.12143 c0.46734 -0.68998 0.71022 -1.4867 0.71022 -2.311 c0 -2.2742 -1.8491 -4.1232 -4.1232 -4.1232 l-0.65869 0 l0 0.21711 l0.65869 0 c2.1546 0 3.908 1.7535 3.908 3.908 c0 0.885 -0.30176 1.7406 -0.85006 2.4306 c0.11959 0.15088 0.22814 0.30912 0.32382 0.4747 c0.34222 0.59246 0.52438 1.2695 0.52438 1.9558 c0 2.1546 -1.7535 3.908 -3.908 3.908 l-0.65869 0 l0 0.21527 l0.65869 0 c2.2742 0 4.1232 -1.8491 4.1232 -4.1232 z"></path></g></svg>